# xmcd CD database file generated by OrangeCD 6.5
#
# Track frame offsets:
#	150
#	12047
#	30479
#	45554
#	63557
#	81379
#	93472
#	110312
#	130884
#	148389
#	162817
#	181266
#	201337
#
# Disc length: 2821 seconds
#
# Revision: 3
# Processed by: cddbd v1.5.2PL0 Copyright (c) Steve Scherf et al.
# Submitted via: OrangeCD 6.5
#
DISCID=af0b030d
DTITLE=Gram Parsons with The Flying Burrito Brothers - Live At The Avalon Ballr
DTITLE=oom 1969
DYEAR=2007
DGENRE=Cosmic American Music
TTITLE0=Close up the Honky Tonks
TTITLE1=Dark End of the Street
TTITLE2=Medley: Undo the Right/Somebody's Back in Town
TTITLE3=She Once Lived Here
TTITLE4=We've Got To Get Ourselves Together
TTITLE5=Lucille
TTITLE6=Hot Burrito #1
TTITLE7=Hot Burrito #2
TTITLE8=Long Black Limousine
TTITLE9=Mental Revenge
TTITLE10=Sin City
TTITLE11=Thousand Dollar Wedding [home recording in LA, 1969]
TTITLE12=When Will I Be Loved [home recording in NYC, 1967]
EXTD=
EXTT0=
EXTT1=
EXTT2=
EXTT3=
EXTT4=
EXTT5=
EXTT6=
EXTT7=
EXTT8=
EXTT9=
EXTT10=
EXTT11=
EXTT12=
PLAYORDER=
